<svg xmlns="http://www.w3.org/2000/svg" width="31.29" height="17.75"><defs><style>.cls-1{fill:#fff;fill-rule:evenodd;filter:url(#filter)}</style><filter id="filter" x="1409.12" y="68.313" width="31.29" height="17.75" filterUnits="userSpaceOnUse"><feFlood result="flood" flood-color="#fff"/><feComposite result="composite" operator="in" in2="SourceGraphic"/><feBlend result="blend" in2="SourceGraphic"/></filter></defs><path id="Фигура_1" data-name="Фигура 1" class="cls-1" d="M1424.44 85.971h1.87a1.585 1.585 0 0 0 .85-.371 1.408 1.408 0 0 0 .26-.816s-.04-2.493 1.12-2.86 2.63 2.409 4.19 3.475a2.978 2.978 0 0 0 2.08.63l4.17-.058s2.19-.135 1.15-1.842a13.705 13.705 0 0 0-3.1-3.572c-2.62-2.416-2.27-2.025.88-6.2 1.93-2.545 2.69-4.1 2.45-4.764-.23-.634-1.64-.467-1.64-.467l-4.7.029a1.083 1.083 0 0 0-.61.106 1.3 1.3 0 0 0-.41.5 27.592 27.592 0 0 1-1.74 3.644c-2.1 3.534-2.93 3.722-3.28 3.5-.79-.512-.59-2.054-.59-3.151 0-3.425.52-4.853-1.02-5.223a8.1 8.1 0 0 0-2.2-.217 10.23 10.23 0 0 0-3.9.4c-.53.26-.95.841-.7.874a2.1 2.1 0 0 1 1.39.694 4.538 4.538 0 0 1 .47 2.115s.28 4.032-.65 4.532c-.63.344-1.5-.358-3.37-3.564a29.215 29.215 0 0 1-1.68-3.458 1.387 1.387 0 0 0-.39-.521 1.935 1.935 0 0 0-.72-.29l-4.47.029a1.543 1.543 0 0 0-.92.309.992.992 0 0 0-.01.791s3.5 8.135 7.46 12.235a10.766 10.766 0 0 0 7.76 3.511z" transform="translate(-1409.12 -68.313)"/></svg>